<?xml version="1.0" encoding="UTF-8"?>
<svg width="201px" height="130px" viewBox="0 0 201 130" version="1.1" xmlns="http://www.w3.org/2000/svg" xmlns:xlink="http://www.w3.org/1999/xlink">
    <!-- Generator: Sketch 55.2 (78181) - https://sketchapp.com -->
    <title>noun_Van_2477317</title>
    <desc>Created with Sketch.</desc>
    <g id="Page-1" stroke="none" stroke-width="1" fill="none" fill-rule="evenodd">
        <g id="Desktop-HD" transform="translate(-152.000000, -1974.000000)" fill="#FFFFFF" fill-rule="nonzero">
            <g id="noun_Van_2477317" transform="translate(152.000000, 1974.000000)">
                <g id="Group">
                    <g>
                        <polygon id="Path" points="154.063258 50.6003896 157.525645 50.6003896 157.528887 50.5851948"></polygon>
                        <polygon id="Path" points="157.528887 50.8350649 157.528887 66.8554545 177.627266 66.8554545 167.31629 50.8350649"></polygon>
                        <path d="M44.8878387,100.598052 C37.2449758,100.598052 31.0269435,107.08961 31.0269435,115.068571 C31.0269435,115.07026 31.0269435,115.071948 31.0269435,115.073636 C31.0301855,123.050909 37.2465968,129.539091 44.8894597,129.539091 C52.5323226,129.539091 58.7519758,123.047532 58.7519758,115.068571 C58.7487339,107.08961 52.5307016,100.598052 44.8878387,100.598052 Z" id="Path"></path>
                        <path d="M24.4652661,111.052078 C24.5171371,110.76 24.5803548,110.474675 24.6435726,110.187662 C24.7278629,109.806104 24.8202581,109.427922 24.924,109.054805 C25.0034274,108.771169 25.0860968,108.489221 25.17525,108.208961 C25.2919597,107.842597 25.4216371,107.481299 25.5561774,107.125065 C25.6582984,106.854935 25.7604194,106.586494 25.8722661,106.321429 C26.0246371,105.961818 26.1915968,105.612338 26.3601774,105.264545 C26.480129,105.016364 26.5968387,104.768182 26.7265161,104.525065 C26.9194113,104.163766 27.1317581,103.814286 27.3441048,103.464805 C27.4737823,103.252078 27.5937339,103.035974 27.7298952,102.828312 C28.0054597,102.40961 28.3020968,102.007792 28.6035968,101.609351 C28.6959919,101.487792 28.7786613,101.359481 28.8726774,101.23961 C29.2730565,100.734805 29.69775,100.25026 30.1402742,99.7842857 C30.2829194,99.634026 30.4385323,99.4972727 30.5860403,99.3503896 C30.8972661,99.0414286 31.2117339,98.7324675 31.5407903,98.4437662 C31.7336855,98.2749351 31.9363065,98.1196104 32.1340645,97.9592208 C32.4371855,97.7127273 32.7403065,97.4679221 33.0563952,97.2383117 C33.2752258,97.0796104 33.5005403,96.9327273 33.7258548,96.7824675 C34.0387016,96.5731169 34.3547903,96.3688312 34.6773629,96.1780519 C34.9156452,96.0379221 35.1571694,95.9045455 35.4019355,95.7728571 C35.729371,95.5972727 36.0616694,95.4284416 36.3988306,95.2714286 C36.6500806,95.1532468 36.9029516,95.0384416 37.1606855,94.9320779 C37.5075726,94.7868831 37.8609435,94.6535065 38.2175565,94.5268831 C38.4752903,94.4357143 38.7314032,94.3428571 38.994,94.2618182 C39.3700645,94.1453247 39.7542339,94.0474026 40.1400242,93.9528571 C40.3928952,93.8903896 40.6425242,93.8228571 40.8986371,93.7705195 C41.3281935,93.6827273 41.7658548,93.6219481 42.2051371,93.5611688 C42.4255887,93.5307792 42.6444194,93.4885714 42.8664919,93.4666234 C43.5294677,93.3990909 44.1989274,93.3602597 44.8797339,93.3602597 C44.8829758,93.3602597 44.8845968,93.3602597 44.8878387,93.3602597 L44.8878387,93.3602597 L44.8878387,93.3602597 C45.5702661,93.3602597 46.2429677,93.3990909 46.9091855,93.4666234 C47.1263952,93.4885714 47.3387419,93.5307792 47.5543306,93.5594805 C48.0000968,93.6185714 48.4442419,93.6827273 48.8802823,93.7705195 C49.1299113,93.8211688 49.3730565,93.8887013 49.6194435,93.9477922 C50.0117177,94.044026 50.4039919,94.1436364 50.7865403,94.2618182 C51.0410323,94.3411688 51.2906613,94.4306494 51.5419113,94.5201299 C51.906629,94.6501299 52.2681048,94.7851948 52.6247177,94.9354545 C52.8727258,95.0401299 53.1174919,95.1498701 53.3606371,95.2646753 C53.7091452,95.4267532 54.0495484,95.6006494 54.3867097,95.7812987 C54.620129,95.9079221 54.8519274,96.0345455 55.0804839,96.1696104 C55.4176452,96.3688312 55.7450806,96.5798701 56.0692742,96.7976623 C56.281621,96.9394805 56.4955887,97.0796104 56.7030726,97.2298701 C57.0369919,97.4712987 57.3563226,97.7279221 57.6756532,97.9896104 C57.8572016,98.1381818 58.0436129,98.28 58.2202984,98.4353247 C58.5785323,98.7493506 58.9205565,99.0819481 59.2577177,99.4196104 C59.3776694,99.5394805 59.5057258,99.6509091 59.6224355,99.7741558 C60.0714435,100.246883 60.502621,100.738182 60.9094839,101.251429 C60.9645968,101.320649 61.0116048,101.394935 61.0650968,101.464156 C61.4103629,101.90987 61.7426613,102.369091 62.0538871,102.843506 C62.1705968,103.022468 62.2743387,103.20987 62.3861855,103.392208 C62.6179839,103.77039 62.8465403,104.15026 63.0572661,104.543636 C63.1739758,104.763117 63.2793387,104.989351 63.3895645,105.212208 C63.5727339,105.585325 63.7510403,105.96013 63.9131371,106.345065 C64.0152581,106.588182 64.1092742,106.836364 64.2032903,107.082857 C64.3475565,107.464416 64.4853387,107.847662 64.6101532,108.239351 C64.6928226,108.497662 64.7690081,108.757662 64.8419516,109.019351 C64.9521774,109.417792 65.0510565,109.81961 65.1402097,110.226494 C65.1985645,110.48987 65.2552984,110.753247 65.3039274,111.021688 C65.3298629,111.165195 65.3687661,111.305325 65.3914597,111.448831 L135.807919,111.448831 L135.807919,27.5279221 L135.807919,14.4722078 C135.807919,6.49324675 129.589887,0.00168798244 121.945403,0.00168798244 L13.8625161,0.00168798244 C6.21803226,-2.02528966e-16 0,6.49155844 0,14.4705195 L0,96.9783117 C0,104.957273 6.21803226,111.448831 13.8625161,111.448831 L24.3842177,111.448831 C24.4052903,111.315455 24.4409516,111.185455 24.4652661,111.052078 Z M67.9055806,33.5332468 L117.847597,33.5332468 C119.76196,33.5332468 121.313226,35.1523377 121.313226,37.1512987 C121.313226,39.1502597 119.76196,40.7693506 117.847597,40.7693506 L67.9055806,40.7693506 C65.9912177,40.7693506 64.4399516,39.1502597 64.4399516,37.1512987 C64.4399516,35.1523377 65.9912177,33.5332468 67.9055806,33.5332468 Z M48.4215484,57.0294805 L117.847597,57.0294805 C119.76196,57.0294805 121.313226,58.6485714 121.313226,60.6475325 C121.313226,62.6464935 119.76196,64.2655844 117.847597,64.2655844 L48.4215484,64.2655844 C46.5071855,64.2655844 44.9559194,62.6464935 44.9559194,60.6475325 C44.9559194,58.6485714 46.5071855,57.0294805 48.4215484,57.0294805 Z" id="Shape"></path>
                        <path d="M185.732105,115.068571 C185.732105,107.08961 179.514073,100.598052 171.87121,100.598052 C164.228347,100.598052 158.010315,107.08961 158.010315,115.068571 C158.010315,123.047532 164.228347,129.539091 171.872831,129.539091 C179.514073,129.539091 185.732105,123.050909 185.735347,115.073636 C185.732105,115.071948 185.732105,115.07026 185.732105,115.068571 Z" id="Path"></path>
                        <path d="M174.364258,32.8157143 C173.681831,31.768961 172.603887,31.1442857 171.480556,31.1442857 L142.740798,31.1442857 L142.740798,111.450519 L151.365968,111.450519 C151.388661,111.305325 151.427565,111.166883 151.4535,111.023377 C151.502129,110.754935 151.558863,110.491558 151.617218,110.228182 C151.706371,109.821299 151.803629,109.419481 151.915476,109.021039 C151.988419,108.759351 152.066226,108.499351 152.147274,108.241039 C152.272089,107.849351 152.40825,107.466104 152.554137,107.084545 C152.648153,106.836364 152.742169,106.58987 152.84429,106.346753 C153.006387,105.961818 153.184694,105.587013 153.367863,105.213896 C153.478089,104.991039 153.581831,104.764805 153.700161,104.545325 C153.910887,104.151948 154.137823,103.772078 154.371242,103.393896 C154.483089,103.211558 154.586831,103.024156 154.70354,102.845195 C155.014766,102.370779 155.347065,101.913247 155.692331,101.465844 C155.745823,101.396623 155.792831,101.322338 155.847944,101.253117 C156.254806,100.73987 156.685984,100.246883 157.134992,99.7758442 C157.251702,99.6525974 157.379758,99.5411688 157.49971,99.4212987 C157.836871,99.0836364 158.178895,98.751039 158.537129,98.437013 C158.713815,98.2816883 158.900226,98.1398701 159.081774,97.9912987 C159.401105,97.7296104 159.720435,97.472987 160.054355,97.2315584 C160.261839,97.0812987 160.475806,96.9428571 160.688153,96.7993506 C161.012347,96.5815584 161.341403,96.3705195 161.676944,96.1712987 C161.9055,96.0362338 162.137298,95.9096104 162.370718,95.782987 C162.707879,95.6006494 163.049903,95.4284416 163.39679,95.2663636 C163.639935,95.1515584 163.884702,95.0418182 164.13271,94.9371429 C164.489323,94.7868831 164.850798,94.6518182 165.215516,94.5218182 C165.466766,94.4323377 165.716395,94.3428571 165.970887,94.2635065 C166.355056,94.1453247 166.74571,94.0457143 167.137984,93.9494805 C167.384371,93.8887013 167.627516,93.8228571 167.877145,93.7722078 C168.313185,93.6827273 168.757331,93.6202597 169.203097,93.5611688 C169.418685,93.5324675 169.629411,93.4902597 169.848242,93.4683117 C170.51446,93.4007792 171.187161,93.3619481 171.869589,93.3619481 L171.869589,93.3619481 L171.869589,93.3619481 C171.872831,93.3619481 171.874452,93.3619481 171.877694,93.3619481 C172.556879,93.3619481 173.22796,93.4007792 173.890935,93.4683117 C174.114629,93.4902597 174.331839,93.5324675 174.55229,93.5628571 C174.991573,93.6219481 175.429234,93.6844156 175.85879,93.7722078 C176.114903,93.8245455 176.364532,93.8920779 176.617403,93.9545455 C177.003194,94.0490909 177.385742,94.147013 177.763427,94.2635065 C178.026024,94.3445455 178.282137,94.4374026 178.539871,94.5285714 C178.896484,94.6551948 179.249855,94.7868831 179.596742,94.9337662 C179.852855,95.0418182 180.105726,95.1566234 180.358597,95.2731169 C180.695758,95.4318182 181.028056,95.598961 181.355492,95.7745455 C181.598637,95.9062338 181.841782,96.0379221 182.080065,96.1797403 C182.404258,96.3722078 182.718726,96.5748052 183.031573,96.7841558 C183.256887,96.9344156 183.482202,97.0812987 183.701032,97.24 C184.017121,97.4696104 184.320242,97.7144156 184.623363,97.9609091 C184.821121,98.122987 185.023742,98.2766234 185.216637,98.4454545 C185.545694,98.7341558 185.860161,99.0414286 186.171387,99.3520779 C186.318895,99.498961 186.474508,99.6357143 186.617153,99.785974 C187.059677,100.251948 187.48275,100.736494 187.88475,101.241299 C187.978766,101.359481 188.061435,101.489481 188.153831,101.611039 C188.455331,102.007792 188.751968,102.411299 189.027532,102.83 C189.163694,103.035974 189.283645,103.253766 189.413323,103.466494 C189.625669,103.815974 189.836395,104.163766 190.030911,104.526753 C190.160589,104.768182 190.275677,105.018052 190.39725,105.266234 C190.567452,105.614026 190.73279,105.963506 190.885161,106.323117 C190.997008,106.588182 191.099129,106.856623 191.20125,107.126753 C191.337411,107.484675 191.465468,107.844286 191.582177,108.210649 C191.671331,108.490909 191.755621,108.771169 191.833427,109.056494 C191.937169,109.42961 192.027944,109.807792 192.113855,110.189351 C192.177073,110.476364 192.24029,110.763377 192.292161,111.053766 C192.316476,111.188831 192.352137,111.317143 192.374831,111.452208 L197.380379,111.452208 C199.37579,111.452208 201,109.561299 201,107.236494 L201,75.0876623 C201,74.175974 200.739024,73.2727273 200.264081,72.5450649 L174.364258,32.8157143 Z M182.047645,72.7442857 C180.935661,73.6154545 179.572427,74.0915584 178.197847,74.0915584 C178.17029,74.0915584 178.144355,74.0915584 178.116798,74.0915584 L157.123645,74.0915584 C153.525097,74.0915584 150.597591,70.9512987 150.597591,67.0901299 L150.597591,50.6088312 C150.586282,46.9738961 153.119855,43.9687013 156.491468,43.6175325 C156.554685,43.6107792 156.619524,43.6057143 156.682742,43.604026 C156.8805,43.5938961 157.078258,43.5938961 157.276016,43.604026 L167.593476,43.6006494 C169.746121,43.6090909 171.748016,44.7419481 172.9605,46.6345455 L183.571355,63.1192208 C185.592702,66.2696104 184.921621,70.4954545 182.047645,72.7442857 Z" id="Shape"></path>
                    </g>
                </g>
            </g>
        </g>
    </g>
</svg>