<?xml version="1.0" encoding="UTF-8"?>
<svg width="254px" height="164px" viewBox="0 0 254 164" version="1.1" xmlns="http://www.w3.org/2000/svg" xmlns:xlink="http://www.w3.org/1999/xlink">
    <!-- Generator: Sketch 55.2 (78181) - https://sketchapp.com -->
    <title>noun_Van_2477317</title>
    <desc>Created with Sketch.</desc>
    <g id="Page-1" stroke="none" stroke-width="1" fill="none" fill-rule="evenodd">
        <g id="Desktop-HD" transform="translate(-440.000000, -1917.000000)" fill="#FFFFFF" fill-rule="nonzero">
            <g id="noun_Van_2477317" transform="translate(440.000000, 1917.000000)">
                <g id="Group">
                    <g>
                        <polygon id="Path" points="194.686903 63.8343377 199.062258 63.8343377 199.066355 63.8151688"></polygon>
                        <polygon id="Path" points="199.066355 64.1303896 199.066355 84.3407273 224.464306 84.3407273 211.434516 64.1303896"></polygon>
                        <path d="M56.7239355,126.908312 C47.0657903,126.908312 39.2081774,135.097662 39.2081774,145.163429 C39.2081774,145.165558 39.2081774,145.167688 39.2081774,145.169818 C39.2122742,155.233455 47.0678387,163.418545 56.7259839,163.418545 C66.384129,163.418545 74.2437903,155.229195 74.2437903,145.163429 C74.2396935,135.097662 66.3820806,126.908312 56.7239355,126.908312 Z" id="Path"></path>
                        <path d="M30.9163065,140.096468 C30.9818548,139.728 31.0617419,139.368052 31.141629,139.005974 C31.2481452,138.524623 31.3649032,138.047532 31.496,137.576831 C31.596371,137.219013 31.7008387,136.863325 31.8135,136.509766 C31.9609839,136.047584 32.1248548,135.591792 32.294871,135.14239 C32.4239194,134.80161 32.5529677,134.462961 32.6943065,134.128571 C32.8868548,133.674909 33.0978387,133.234026 33.310871,132.795273 C33.4624516,132.482182 33.6099355,132.169091 33.7738065,131.86239 C34.0175645,131.406597 34.2859032,130.965714 34.5542419,130.524831 C34.7181129,130.256468 34.8696935,129.983844 35.0417581,129.72187 C35.3899839,129.193662 35.7648387,128.686753 36.1458387,128.184104 C36.2625968,128.030753 36.3670645,127.868883 36.485871,127.717662 C36.9918226,127.080831 37.5285,126.469558 38.0877097,125.881714 C38.2679677,125.692156 38.4646129,125.519636 38.6510161,125.334338 C39.0443065,124.944571 39.4416935,124.554805 39.8575161,124.190597 C40.1012742,123.97761 40.3573226,123.781662 40.6072258,123.579325 C40.9902742,123.268364 41.3733226,122.959532 41.7727581,122.66987 C42.0492903,122.469662 42.3340161,122.284364 42.6187419,122.094805 C43.0140806,121.830701 43.4135161,121.572987 43.8211452,121.332312 C44.1222581,121.155532 44.4274677,120.987273 44.7367742,120.821143 C45.1505484,120.599636 45.5704677,120.386649 45.9965323,120.188571 C46.3140323,120.039481 46.6335806,119.894649 46.9592742,119.760468 C47.397629,119.577299 47.8441774,119.409039 48.2948226,119.249299 C48.6205161,119.134286 48.9441613,119.017143 49.276,118.914909 C49.7512258,118.767948 50.2366935,118.644416 50.7242097,118.525143 C51.0437581,118.446338 51.3592097,118.361143 51.6828548,118.295117 C52.2256774,118.184364 52.7787419,118.107688 53.3338548,118.031013 C53.6124355,117.992675 53.8889677,117.939429 54.1695968,117.91174 C55.0073871,117.826545 55.853371,117.777558 56.7136935,117.777558 C56.7177903,117.777558 56.7198387,117.777558 56.7239355,117.777558 L56.7239355,117.777558 L56.7239355,117.777558 C57.5863065,117.777558 58.4363871,117.826545 59.2782742,117.91174 C59.5527581,117.939429 59.8210968,117.992675 60.0935323,118.028883 C60.6568387,118.103429 61.2180968,118.184364 61.7691129,118.295117 C62.0845645,118.359013 62.3918226,118.444208 62.7031774,118.518753 C63.1988871,118.640156 63.6945968,118.765818 64.1780161,118.914909 C64.4996129,119.015013 64.8150645,119.127896 65.1325645,119.240779 C65.5934516,119.404779 66.0502419,119.575169 66.5008871,119.764727 C66.8142903,119.896779 67.1235968,120.035221 67.4308548,120.180052 C67.8712581,120.384519 68.3014194,120.603896 68.7274839,120.831792 C69.0224516,120.991532 69.315371,121.151273 69.6041935,121.321662 C70.0302581,121.572987 70.4440323,121.839221 70.8537097,122.113974 C71.1220484,122.292883 71.3924355,122.469662 71.654629,122.659221 C72.0765968,122.963792 72.480129,123.287532 72.8836613,123.617662 C73.1130806,123.805091 73.3486452,123.984 73.5719194,124.179948 C74.0246129,124.576104 74.4568226,124.995688 74.8828871,125.421662 C75.0344677,125.572883 75.1962903,125.713455 75.3437742,125.868935 C75.9111774,126.465299 76.4560484,127.085091 76.9701935,127.732571 C77.0398387,127.819896 77.0992419,127.91361 77.1668387,128.000935 C77.6031452,128.563221 78.0230645,129.142545 78.4163548,129.741039 C78.5638387,129.966805 78.6949355,130.203221 78.8362742,130.433247 C79.1291935,130.910338 79.4180161,131.389558 79.6843065,131.885818 C79.8317903,132.162701 79.9649355,132.448104 80.1042258,132.729247 C80.3356935,133.199948 80.5610161,133.672779 80.7658548,134.15839 C80.8949032,134.465091 81.0137097,134.778182 81.1325161,135.089143 C81.3148226,135.570494 81.4889355,136.053974 81.6466613,136.548104 C81.751129,136.873974 81.8474032,137.201974 81.9395806,137.532104 C82.078871,138.034753 82.2038226,138.541662 82.3164839,139.054961 C82.3902258,139.387221 82.4619194,139.719481 82.523371,140.05813 C82.5561452,140.239169 82.6053065,140.415948 82.6339839,140.596987 L171.617968,140.596987 L171.617968,34.7275325 L171.617968,18.2572468 C171.617968,8.19148052 163.760355,0.00212945477 154.100161,0.00212945477 L17.5178065,0.00212945477 C7.8576129,-9.37618039e-16 0,8.18935065 0,18.2551169 L0,122.34187 C0,132.407636 7.8576129,140.596987 17.5178065,140.596987 L30.8138871,140.596987 C30.8405161,140.428727 30.8855806,140.264727 30.9163065,140.096468 Z M85.8110323,42.3034805 L148.921839,42.3034805 C151.340984,42.3034805 153.30129,44.346026 153.30129,46.8677922 C153.30129,49.3895584 151.340984,51.4321039 148.921839,51.4321039 L85.8110323,51.4321039 C83.3918871,51.4321039 81.4315806,49.3895584 81.4315806,46.8677922 C81.4315806,44.346026 83.3918871,42.3034805 85.8110323,42.3034805 Z M61.1894194,71.9448831 L148.921839,71.9448831 C151.340984,71.9448831 153.30129,73.9874286 153.30129,76.5091948 C153.30129,79.030961 151.340984,81.0735065 148.921839,81.0735065 L61.1894194,81.0735065 C58.7702742,81.0735065 56.8099677,79.030961 56.8099677,76.5091948 C56.8099677,73.9874286 58.7702742,71.9448831 61.1894194,71.9448831 Z" id="Shape"></path>
                        <path d="M234.706242,145.163429 C234.706242,135.097662 226.848629,126.908312 217.190484,126.908312 C207.532339,126.908312 199.674726,135.097662 199.674726,145.163429 C199.674726,155.229195 207.532339,163.418545 217.192532,163.418545 C226.848629,163.418545 234.706242,155.233455 234.710339,145.169818 C234.706242,145.167688 234.706242,145.165558 234.706242,145.163429 Z" id="Path"></path>
                        <path d="M220.340903,41.3982857 C219.478532,40.0777662 218.116355,39.2897143 216.696823,39.2897143 L180.378919,39.2897143 L180.378919,140.599117 L191.278387,140.599117 C191.307065,140.415948 191.356226,140.241299 191.389,140.06026 C191.450452,139.72161 191.522145,139.389351 191.595887,139.057091 C191.708548,138.543792 191.831452,138.036883 191.97279,137.534234 C192.064968,137.204104 192.16329,136.876104 192.26571,136.550234 C192.423435,136.056104 192.5955,135.572623 192.779855,135.091273 C192.898661,134.778182 193.017468,134.467221 193.146516,134.160519 C193.351355,133.674909 193.576677,133.202078 193.808145,132.731377 C193.947435,132.450234 194.078532,132.164831 194.228065,131.887948 C194.494355,131.391688 194.781129,130.912468 195.076097,130.435377 C195.217435,130.205351 195.348532,129.968935 195.496016,129.743169 C195.889306,129.144675 196.309226,128.567481 196.745532,128.003065 C196.813129,127.91574 196.872532,127.822026 196.942177,127.734701 C197.456323,127.087221 198.001194,126.465299 198.568597,125.871065 C198.716081,125.715584 198.877903,125.575013 199.029484,125.423792 C199.455548,124.997818 199.887758,124.578234 200.340452,124.182078 C200.563726,123.98613 200.79929,123.807221 201.02871,123.619792 C201.432242,123.289662 201.835774,122.965922 202.257742,122.661351 C202.519935,122.471792 202.790323,122.297143 203.058661,122.116104 C203.468339,121.841351 203.884161,121.575117 204.308177,121.323792 C204.597,121.153403 204.889919,120.993662 205.184887,120.833922 C205.610952,120.603896 206.043161,120.386649 206.481516,120.182182 C206.788774,120.037351 207.098081,119.898909 207.411484,119.766857 C207.862129,119.577299 208.318919,119.406909 208.779806,119.242909 C209.097306,119.130026 209.412758,119.017143 209.734355,118.917039 C210.219823,118.767948 210.713484,118.642286 211.209194,118.520883 C211.520548,118.444208 211.827806,118.361143 212.143258,118.297247 C212.694274,118.184364 213.255532,118.105558 213.818839,118.031013 C214.091274,117.994805 214.357565,117.941558 214.634097,117.91387 C215.475984,117.828675 216.326065,117.779688 217.188435,117.779688 L217.188435,117.779688 L217.188435,117.779688 C217.192532,117.779688 217.194581,117.779688 217.198677,117.779688 C218.056952,117.779688 218.904984,117.828675 219.742774,117.91387 C220.025452,117.941558 220.299935,117.994805 220.578516,118.033143 C221.133629,118.107688 221.686694,118.186494 222.229516,118.297247 C222.553161,118.363273 222.868613,118.448468 223.188161,118.527273 C223.675677,118.646545 224.159097,118.770078 224.636371,118.917039 C224.96821,119.019273 225.291855,119.136416 225.617548,119.251429 C226.068194,119.411169 226.514742,119.577299 226.953097,119.762597 C227.276742,119.898909 227.59629,120.04374 227.915839,120.190701 C228.341903,120.390909 228.761823,120.601766 229.175597,120.823273 C229.482855,120.989403 229.790113,121.155532 230.091226,121.334442 C230.500903,121.577247 230.89829,121.832831 231.293629,122.096935 C231.578355,122.286494 231.863081,122.471792 232.139613,122.672 C232.539048,122.961662 232.922097,123.270494 233.305145,123.581455 C233.555048,123.785922 233.811097,123.97974 234.054855,124.192727 C234.470677,124.556935 234.868065,124.944571 235.261355,125.336468 C235.447758,125.521766 235.644403,125.694286 235.824661,125.883844 C236.383871,126.471688 236.9185,127.082961 237.4265,127.719792 C237.545306,127.868883 237.649774,128.032883 237.766532,128.186234 C238.147532,128.686753 238.522387,129.195792 238.870613,129.724 C239.042677,129.983844 239.194258,130.258597 239.358129,130.526961 C239.626468,130.967844 239.892758,131.406597 240.138565,131.864519 C240.302435,132.169091 240.447871,132.484312 240.6015,132.797403 C240.816581,133.236156 241.025516,133.677039 241.218065,134.130701 C241.359403,134.465091 241.488452,134.80374 241.6175,135.144519 C241.789565,135.596052 241.951387,136.049714 242.098871,136.511896 C242.211532,136.865455 242.318048,137.219013 242.416371,137.578961 C242.547468,138.049662 242.662177,138.526753 242.770742,139.008104 C242.850629,139.370182 242.930516,139.73226 242.996065,140.098597 C243.02679,140.268987 243.071855,140.430857 243.100532,140.601247 L249.425952,140.601247 C251.947516,140.601247 254,138.215792 254,135.282961 L254,94.725974 C254,93.5758442 253.67021,92.4363636 253.070032,91.5183896 L220.340903,41.3982857 Z M230.050258,91.7697143 C228.645065,92.8687273 226.922371,93.4693506 225.185339,93.4693506 C225.150516,93.4693506 225.117742,93.4693506 225.082919,93.4693506 L198.554258,93.4693506 C194.006839,93.4693506 190.307404,89.5077922 190.307404,84.6367792 L190.307404,63.844987 C190.293113,59.2593766 193.494742,55.4682078 197.755387,55.0251948 C197.835274,55.0166753 197.91721,55.0102857 197.997097,55.0081558 C198.247,54.9953766 198.496903,54.9953766 198.746806,55.0081558 L211.78479,55.0038961 C214.505048,55.0145455 217.034806,56.4436883 218.567,58.8312727 L231.975742,79.6273247 C234.530081,83.6016623 233.682048,88.9327273 230.050258,91.7697143 Z" id="Shape"></path>
                    </g>
                </g>
            </g>
        </g>
    </g>
</svg>